<svg id="svg" version="1.1" xmlns="http://www.w3.org/2000/svg" xmlns:xlink="http://www.w3.org/1999/xlink" width="400" height="400" viewBox="0, 0, 400,400"><g id="svgg"><path id="path0" d="M268.400 93.800 L 268.400 176.000 198.800 176.000 L 129.200 176.000 129.200 110.000 L 129.200 44.000 127.400 44.000 C 126.067 44.000,125.600 44.156,125.600 44.600 C 125.600 44.966,125.227 45.200,124.643 45.200 C 124.116 45.200,123.582 45.470,123.455 45.800 C 123.329 46.130,122.789 46.400,122.255 46.400 C 121.722 46.400,121.182 46.670,121.055 47.000 C 120.929 47.330,120.549 47.600,120.213 47.600 C 119.876 47.600,119.600 47.870,119.600 48.200 C 119.600 48.600,119.200 48.800,118.400 48.800 C 117.600 48.800,117.200 49.000,117.200 49.400 C 117.200 49.800,116.800 50.000,116.000 50.000 C 115.200 50.000,114.800 50.200,114.800 50.600 C 114.800 51.000,114.400 51.200,113.600 51.200 C 112.800 51.200,112.400 51.400,112.400 51.800 C 112.400 52.166,112.027 52.400,111.443 52.400 C 110.916 52.400,110.382 52.670,110.255 53.000 C 110.129 53.330,109.749 53.600,109.413 53.600 C 109.076 53.600,108.800 53.870,108.800 54.200 C 108.800 54.600,108.400 54.800,107.600 54.800 C 106.800 54.800,106.400 55.000,106.400 55.400 C 106.400 55.800,106.000 56.000,105.200 56.000 C 104.400 56.000,104.000 56.200,104.000 56.600 C 104.000 57.000,103.600 57.200,102.800 57.200 C 102.000 57.200,101.600 57.400,101.600 57.800 C 101.600 58.200,101.200 58.400,100.400 58.400 C 99.600 58.400,99.200 58.600,99.200 59.000 C 99.200 59.400,98.800 59.600,98.000 59.600 C 97.200 59.600,96.800 59.800,96.800 60.200 C 96.800 60.530,96.530 60.800,96.200 60.800 C 95.870 60.800,95.600 61.070,95.600 61.400 C 95.600 61.800,95.200 62.000,94.400 62.000 C 93.600 62.000,93.200 62.200,93.200 62.600 C 93.200 63.000,92.800 63.200,92.000 63.200 C 91.200 63.200,90.800 63.400,90.800 63.800 C 90.800 64.200,90.400 64.400,89.600 64.400 C 88.800 64.400,88.400 64.600,88.400 65.000 C 88.400 65.400,88.000 65.600,87.200 65.600 C 86.400 65.600,86.000 65.800,86.000 66.200 C 86.000 66.530,85.730 66.800,85.400 66.800 C 85.070 66.800,84.800 67.070,84.800 67.400 C 84.800 67.800,84.400 68.000,83.600 68.000 C 82.533 68.000,82.400 68.133,82.400 69.200 C 82.400 70.000,82.600 70.400,83.000 70.400 C 83.532 70.400,83.600 87.000,83.600 217.400 C 83.600 347.800,83.668 364.400,84.200 364.400 C 84.530 364.400,84.800 364.670,84.800 365.000 C 84.800 365.330,85.070 365.600,85.400 365.600 C 85.730 365.600,86.000 365.870,86.000 366.200 C 86.000 366.600,86.400 366.800,87.200 366.800 C 88.000 366.800,88.400 367.000,88.400 367.400 C 88.400 367.730,88.670 368.000,89.000 368.000 C 89.330 368.000,89.600 368.270,89.600 368.600 C 89.600 369.000,90.000 369.200,90.800 369.200 C 91.600 369.200,92.000 369.400,92.000 369.800 C 92.000 370.200,92.400 370.400,93.200 370.400 C 94.000 370.400,94.400 370.600,94.400 371.000 C 94.400 371.330,94.670 371.600,95.000 371.600 C 95.330 371.600,95.600 371.870,95.600 372.200 C 95.600 372.600,96.000 372.800,96.800 372.800 C 97.600 372.800,98.000 373.000,98.000 373.400 C 98.000 373.800,98.400 374.000,99.200 374.000 C 100.000 374.000,100.400 374.200,100.400 374.600 C 100.400 374.930,100.670 375.200,101.000 375.200 C 101.330 375.200,101.600 375.470,101.600 375.800 C 101.600 376.200,102.000 376.400,102.800 376.400 C 103.600 376.400,104.000 376.600,104.000 377.000 C 104.000 377.400,104.400 377.600,105.200 377.600 C 106.000 377.600,106.400 377.800,106.400 378.200 C 106.400 378.600,106.800 378.800,107.600 378.800 C 108.400 378.800,108.800 379.000,108.800 379.400 C 108.800 379.800,109.200 380.000,110.000 380.000 C 110.800 380.000,111.200 380.200,111.200 380.600 C 111.200 381.000,111.600 381.200,112.400 381.200 C 113.200 381.200,113.600 381.400,113.600 381.800 C 113.600 382.200,114.000 382.400,114.800 382.400 C 115.600 382.400,116.000 382.600,116.000 383.000 C 116.000 383.444,116.467 383.600,117.800 383.600 C 119.133 383.600,119.600 383.756,119.600 384.200 C 119.600 384.600,120.000 384.800,120.800 384.800 C 121.600 384.800,122.000 385.000,122.000 385.400 C 122.000 385.800,122.400 386.000,123.200 386.000 C 124.000 386.000,124.400 386.200,124.400 386.600 C 124.400 387.067,124.933 387.200,126.800 387.200 L 129.200 387.200 129.200 305.000 L 129.200 222.800 198.800 222.800 L 268.400 222.800 268.400 288.600 C 268.400 340.970,268.502 354.401,268.900 354.405 C 269.175 354.408,269.780 354.513,270.245 354.638 C 270.882 354.809,271.146 354.648,271.320 353.983 C 271.522 353.213,271.730 353.135,272.975 353.369 C 274.109 353.582,274.400 353.510,274.400 353.018 C 274.400 352.598,274.784 352.400,275.600 352.400 C 276.400 352.400,276.800 352.200,276.800 351.800 C 276.800 351.400,277.200 351.200,278.000 351.200 C 278.800 351.200,279.200 351.000,279.200 350.600 C 279.200 350.270,279.367 350.000,279.571 350.000 C 279.775 350.000,280.001 349.688,280.075 349.308 C 280.158 348.876,280.582 348.613,281.202 348.608 C 281.811 348.603,282.201 348.367,282.208 348.000 C 282.216 347.560,282.616 347.423,283.710 347.488 C 284.794 347.552,285.200 347.416,285.200 346.988 C 285.200 346.601,285.611 346.400,286.400 346.400 C 287.200 346.400,287.600 346.200,287.600 345.800 C 287.600 345.400,288.000 345.200,288.800 345.200 C 289.600 345.200,290.000 345.000,290.000 344.600 C 290.000 344.270,290.159 344.000,290.353 344.000 C 290.548 344.000,290.795 343.661,290.904 343.246 C 291.049 342.689,291.361 342.542,292.094 342.682 C 292.835 342.824,293.139 342.675,293.290 342.097 C 293.451 341.484,293.754 341.361,294.746 341.507 C 295.709 341.648,296.000 341.541,296.000 341.045 C 296.000 340.595,296.362 340.400,297.200 340.400 C 298.000 340.400,298.400 340.200,298.400 339.800 C 298.400 339.442,298.768 339.200,299.311 339.200 C 300.224 339.200,301.238 338.319,301.694 337.132 C 301.855 336.712,302.265 336.562,302.912 336.685 C 303.645 336.825,303.941 336.670,304.100 336.062 C 304.255 335.468,304.537 335.311,305.156 335.473 C 305.721 335.620,306.000 335.506,306.000 335.127 C 306.000 334.148,306.842 333.594,307.661 334.033 C 308.261 334.354,308.400 334.283,308.400 333.657 C 308.400 332.757,309.546 332.186,310.147 332.787 C 310.757 333.397,311.600 333.289,311.600 332.600 C 311.600 332.270,311.759 332.000,311.953 332.000 C 312.148 332.000,312.394 331.668,312.500 331.261 C 312.650 330.687,312.971 330.564,313.946 330.707 L 315.200 330.891 315.200 182.645 C 315.200 51.138,315.132 34.400,314.600 34.400 C 314.270 34.400,314.000 34.130,314.000 33.800 C 314.000 33.400,313.600 33.200,312.800 33.200 C 312.000 33.200,311.600 33.000,311.600 32.600 C 311.600 32.270,311.330 32.000,311.000 32.000 C 310.670 32.000,310.400 31.730,310.400 31.400 C 310.400 31.000,310.000 30.800,309.200 30.800 C 308.400 30.800,308.000 30.600,308.000 30.200 C 308.000 29.800,307.600 29.600,306.800 29.600 C 306.000 29.600,305.600 29.400,305.600 29.000 C 305.600 28.670,305.330 28.400,305.000 28.400 C 304.670 28.400,304.400 28.130,304.400 27.800 C 304.400 27.400,304.000 27.200,303.200 27.200 C 302.400 27.200,302.000 27.000,302.000 26.600 C 302.000 26.200,301.600 26.000,300.800 26.000 C 300.000 26.000,299.600 25.800,299.600 25.400 C 299.600 25.070,299.330 24.800,299.000 24.800 C 298.670 24.800,298.400 24.530,298.400 24.200 C 298.400 23.800,298.000 23.600,297.200 23.600 C 296.400 23.600,296.000 23.400,296.000 23.000 C 296.000 22.600,295.600 22.400,294.800 22.400 C 294.000 22.400,293.600 22.200,293.600 21.800 C 293.600 21.400,293.200 21.200,292.400 21.200 C 291.600 21.200,291.200 21.000,291.200 20.600 C 291.200 20.200,290.800 20.000,290.000 20.000 C 289.200 20.000,288.800 19.800,288.800 19.400 C 288.800 19.000,288.400 18.800,287.600 18.800 C 286.800 18.800,286.400 18.600,286.400 18.200 C 286.400 17.800,286.000 17.600,285.200 17.600 C 284.400 17.600,284.000 17.400,284.000 17.000 C 284.000 16.556,283.533 16.400,282.200 16.400 C 280.867 16.400,280.400 16.244,280.400 15.800 C 280.400 15.400,280.000 15.200,279.200 15.200 C 278.400 15.200,278.000 15.000,278.000 14.600 C 278.000 14.200,277.600 14.000,276.800 14.000 C 276.000 14.000,275.600 13.800,275.600 13.400 C 275.600 12.956,275.133 12.800,273.800 12.800 C 272.467 12.800,272.000 12.644,272.000 12.200 C 272.000 11.756,271.533 11.600,270.200 11.600 L 268.400 11.600 268.400 93.800 " stroke="none" fill="#fca414" fill-rule="evenodd"></path><path id="path1" d="M312.639 330.694 C 312.112 331.221,312.447 332.000,313.200 332.000 C 313.640 332.000,314.000 331.749,314.000 331.443 C 314.000 330.839,313.028 330.305,312.639 330.694 M308.900 332.667 C 307.920 333.059,308.329 334.400,309.428 334.400 C 310.255 334.400,310.431 334.231,310.328 333.531 C 310.193 332.616,309.730 332.335,308.900 332.667 M306.449 334.111 C 305.683 334.877,305.951 335.600,307.000 335.600 C 307.714 335.600,308.000 335.384,308.000 334.843 C 308.000 333.928,307.070 333.490,306.449 334.111 M304.239 335.494 C 303.712 336.021,304.047 336.800,304.800 336.800 C 305.240 336.800,305.600 336.549,305.600 336.243 C 305.600 335.639,304.628 335.105,304.239 335.494 M301.839 336.694 C 301.312 337.221,301.647 338.000,302.400 338.000 C 302.840 338.000,303.200 337.749,303.200 337.443 C 303.200 336.839,302.228 336.305,301.839 336.694 M293.439 341.494 C 292.912 342.021,293.247 342.800,294.000 342.800 C 294.440 342.800,294.800 342.549,294.800 342.243 C 294.800 341.639,293.828 341.105,293.439 341.494 M291.039 342.694 C 290.512 343.221,290.847 344.000,291.600 344.000 C 292.040 344.000,292.400 343.749,292.400 343.443 C 292.400 342.839,291.428 342.305,291.039 342.694 M282.369 347.300 C 282.013 348.465,282.162 348.800,283.035 348.800 C 283.733 348.800,284.000 348.579,284.000 348.000 C 284.000 347.361,282.542 346.735,282.369 347.300 M280.239 348.694 C 279.712 349.221,280.047 350.000,280.800 350.000 C 281.240 350.000,281.600 349.749,281.600 349.443 C 281.600 348.839,280.628 348.305,280.239 348.694 M271.467 353.467 C 270.859 354.074,271.259 354.800,272.200 354.800 C 272.933 354.800,273.200 354.587,273.200 354.000 C 273.200 353.220,272.063 352.870,271.467 353.467 M268.400 355.200 C 268.400 355.822,268.667 356.000,269.600 356.000 C 270.893 356.000,271.282 355.071,270.167 354.643 C 269.010 354.199,268.400 354.391,268.400 355.200 " stroke="none" fill="#fcbc4c" fill-rule="evenodd"></path></g></svg>